<?xml version="1.0" encoding="UTF-8" standalone="no"?><svg xmlns="http://www.w3.org/2000/svg" xmlns:xlink="http://www.w3.org/1999/xlink" contentScriptType="application/ecmascript" contentStyleType="text/css" height="309px" preserveAspectRatio="none" style="width:502px;height:309px;background:#FFFFFF;" version="1.1" viewBox="0 0 502 309" width="502px" zoomAndPan="magnify"><defs><filter height="300%" id="f1sj7i644z8le" width="300%" x="-1" y="-1"><feGaussianBlur result="blurOut" stdDeviation="2.0"/><feColorMatrix in="blurOut" result="blurOut2" type="matrix" values="0 0 0 0 0 0 0 0 0 0 0 0 0 0 0 0 0 0 .4 0"/><feOffset dx="4.0" dy="4.0" in="blurOut2" result="blurOut3"/><feBlend in="SourceGraphic" in2="blurOut3" mode="normal"/></filter></defs><g><rect fill="#FFFFFF" filter="url(#f1sj7i644z8le)" height="108.5313" style="stroke:#A80036;stroke-width:1.0;" width="10" x="52" y="98.2969"/><rect fill="#FFFFFF" filter="url(#f1sj7i644z8le)" height="96.3984" style="stroke:#A80036;stroke-width:1.0;" width="10" x="450" y="119.4297"/><rect fill="#FFFFFF" filter="url(#f1sj7i644z8le)" height="38.1328" style="stroke:#A80036;stroke-width:1.0;" width="10" x="455" y="177.6953"/><line style="stroke:#A80036;stroke-width:1.0;stroke-dasharray:5.0,5.0;" x1="57" x2="57" y1="88.2969" y2="224.8281"/><line style="stroke:#A80036;stroke-width:1.0;stroke-dasharray:5.0,5.0;" x1="455" x2="455" y1="88.2969" y2="224.8281"/><text fill="#000000" font-family="sans-serif" font-size="14" lengthAdjust="spacing" textLength="98" x="5" y="84.9951">Fleet Manager</text><ellipse cx="57" cy="15" fill="#FEFECE" filter="url(#f1sj7i644z8le)" rx="8" ry="8" style="stroke:#A80036;stroke-width:2.0;"/><path d="M57,23 L57,50 M44,31 L70,31 M57,50 L44,65 M57,50 L70,65 " fill="none" filter="url(#f1sj7i644z8le)" style="stroke:#A80036;stroke-width:2.0;"/><text fill="#000000" font-family="sans-serif" font-size="14" lengthAdjust="spacing" textLength="98" x="5" y="236.8232">Fleet Manager</text><ellipse cx="57" cy="250.125" fill="#FEFECE" filter="url(#f1sj7i644z8le)" rx="8" ry="8" style="stroke:#A80036;stroke-width:2.0;"/><path d="M57,258.125 L57,285.125 M44,266.125 L70,266.125 M57,285.125 L44,300.125 M57,285.125 L70,300.125 " fill="none" filter="url(#f1sj7i644z8le)" style="stroke:#A80036;stroke-width:2.0;"/><rect fill="#FEFECE" filter="url(#f1sj7i644z8le)" height="30.2969" style="stroke:#A80036;stroke-width:1.5;" width="70" x="418" y="53"/><text fill="#000000" font-family="sans-serif" font-size="14" lengthAdjust="spacing" textLength="56" x="425" y="72.9951">:System</text><rect fill="#FEFECE" filter="url(#f1sj7i644z8le)" height="30.2969" style="stroke:#A80036;stroke-width:1.5;" width="70" x="418" y="223.8281"/><text fill="#000000" font-family="sans-serif" font-size="14" lengthAdjust="spacing" textLength="56" x="425" y="243.8232">:System</text><rect fill="#FFFFFF" filter="url(#f1sj7i644z8le)" height="108.5313" style="stroke:#A80036;stroke-width:1.0;" width="10" x="52" y="98.2969"/><rect fill="#FFFFFF" filter="url(#f1sj7i644z8le)" height="96.3984" style="stroke:#A80036;stroke-width:1.0;" width="10" x="450" y="119.4297"/><rect fill="#FFFFFF" filter="url(#f1sj7i644z8le)" height="38.1328" style="stroke:#A80036;stroke-width:1.0;" width="10" x="455" y="177.6953"/><polygon fill="#A80036" points="438,115.4297,448,119.4297,438,123.4297,442,119.4297" style="stroke:#A80036;stroke-width:1.0;"/><line style="stroke:#A80036;stroke-width:1.0;" x1="62" x2="444" y1="119.4297" y2="119.4297"/><text fill="#000000" font-family="sans-serif" font-size="13" font-weight="bold" lengthAdjust="spacing" textLength="9" x="69" y="114.3638">1</text><text fill="#000000" font-family="sans-serif" font-size="13" lengthAdjust="spacing" textLength="127" x="82" y="114.3638">starts the operation</text><polygon fill="#A80036" points="73,144.5625,63,148.5625,73,152.5625,69,148.5625" style="stroke:#A80036;stroke-width:1.0;"/><line style="stroke:#A80036;stroke-width:1.0;stroke-dasharray:2.0,2.0;" x1="67" x2="449" y1="148.5625" y2="148.5625"/><text fill="#000000" font-family="sans-serif" font-size="13" font-weight="bold" lengthAdjust="spacing" textLength="9" x="79" y="143.4966">2</text><text fill="#000000" font-family="sans-serif" font-size="13" lengthAdjust="spacing" textLength="351" x="92" y="143.4966">requests all the needed data about a ship and a period</text><polygon fill="#A80036" points="443,173.6953,453,177.6953,443,181.6953,447,177.6953" style="stroke:#A80036;stroke-width:1.0;"/><line style="stroke:#A80036;stroke-width:1.0;" x1="62" x2="449" y1="177.6953" y2="177.6953"/><text fill="#000000" font-family="sans-serif" font-size="13" font-weight="bold" lengthAdjust="spacing" textLength="9" x="69" y="172.6294">3</text><text fill="#000000" font-family="sans-serif" font-size="13" lengthAdjust="spacing" textLength="189" x="82" y="172.6294">types the needed information</text><polygon fill="#A80036" points="68,202.8281,58,206.8281,68,210.8281,64,206.8281" style="stroke:#A80036;stroke-width:1.0;"/><line style="stroke:#A80036;stroke-width:1.0;stroke-dasharray:2.0,2.0;" x1="62" x2="454" y1="206.8281" y2="206.8281"/><text fill="#000000" font-family="sans-serif" font-size="13" font-weight="bold" lengthAdjust="spacing" textLength="9" x="74" y="201.7622">4</text><text fill="#000000" font-family="sans-serif" font-size="13" lengthAdjust="spacing" textLength="314" x="87" y="201.7622">returns the average occupancy rate per manifest</text><!--MD5=[b402e3ed46efbd7ab0bcfc85b4eac873]
@startuml
autonumber
actor "Fleet Manager" as UNR

activate UNR
UNR -> ":System" : starts the operation
activate ":System"
":System" - -> UNR : requests all the needed data about a ship and a period

UNR -> ":System" : types the needed information
activate ":System"
":System" - -> UNR : returns the average occupancy rate per manifest 
deactivate UNR
@enduml

PlantUML version 1.2021.16(Wed Dec 08 17:25:22 UTC 2021)
(GPL source distribution)
Java Runtime: OpenJDK Runtime Environment
JVM: OpenJDK 64-Bit Server VM
Default Encoding: UTF-8
Language: en
Country: US
--></g></svg>