<?xml version="1.0" encoding="UTF-8" standalone="no"?><svg xmlns="http://www.w3.org/2000/svg" xmlns:xlink="http://www.w3.org/1999/xlink" contentScriptType="application/ecmascript" contentStyleType="text/css" height="309px" preserveAspectRatio="none" style="width:719px;height:309px;background:#FFFFFF;" version="1.1" viewBox="0 0 719 309" width="719px" zoomAndPan="magnify"><defs><filter height="300%" id="fzgv95ixw9hjr" width="300%" x="-1" y="-1"><feGaussianBlur result="blurOut" stdDeviation="2.0"/><feColorMatrix in="blurOut" result="blurOut2" type="matrix" values="0 0 0 0 0 0 0 0 0 0 0 0 0 0 0 0 0 0 .4 0"/><feOffset dx="4.0" dy="4.0" in="blurOut2" result="blurOut3"/><feBlend in="SourceGraphic" in2="blurOut3" mode="normal"/></filter></defs><g><rect fill="#FFFFFF" filter="url(#fzgv95ixw9hjr)" height="108.5313" style="stroke:#A80036;stroke-width:1.0;" width="10" x="46" y="98.2969"/><rect fill="#FFFFFF" filter="url(#fzgv95ixw9hjr)" height="29.1328" style="stroke:#A80036;stroke-width:1.0;" width="10" x="667" y="119.4297"/><rect fill="#FFFFFF" filter="url(#fzgv95ixw9hjr)" height="29.1328" style="stroke:#A80036;stroke-width:1.0;" width="10" x="667" y="177.6953"/><line style="stroke:#A80036;stroke-width:1.0;stroke-dasharray:5.0,5.0;" x1="51" x2="51" y1="88.2969" y2="224.8281"/><line style="stroke:#A80036;stroke-width:1.0;stroke-dasharray:5.0,5.0;" x1="672" x2="672" y1="88.2969" y2="224.8281"/><text fill="#000000" font-family="sans-serif" font-size="14" lengthAdjust="spacing" textLength="86" x="5" y="84.9951">Ship Captain</text><ellipse cx="51" cy="15" fill="#FEFECE" filter="url(#fzgv95ixw9hjr)" rx="8" ry="8" style="stroke:#A80036;stroke-width:2.0;"/><path d="M51,23 L51,50 M38,31 L64,31 M51,50 L38,65 M51,50 L64,65 " fill="none" filter="url(#fzgv95ixw9hjr)" style="stroke:#A80036;stroke-width:2.0;"/><text fill="#000000" font-family="sans-serif" font-size="14" lengthAdjust="spacing" textLength="86" x="5" y="236.8232">Ship Captain</text><ellipse cx="51" cy="250.125" fill="#FEFECE" filter="url(#fzgv95ixw9hjr)" rx="8" ry="8" style="stroke:#A80036;stroke-width:2.0;"/><path d="M51,258.125 L51,285.125 M38,266.125 L64,266.125 M51,285.125 L38,300.125 M51,285.125 L64,300.125 " fill="none" filter="url(#fzgv95ixw9hjr)" style="stroke:#A80036;stroke-width:2.0;"/><rect fill="#FEFECE" filter="url(#fzgv95ixw9hjr)" height="30.2969" style="stroke:#A80036;stroke-width:1.5;" width="70" x="635" y="53"/><text fill="#000000" font-family="sans-serif" font-size="14" lengthAdjust="spacing" textLength="56" x="642" y="72.9951">:System</text><rect fill="#FEFECE" filter="url(#fzgv95ixw9hjr)" height="30.2969" style="stroke:#A80036;stroke-width:1.5;" width="70" x="635" y="223.8281"/><text fill="#000000" font-family="sans-serif" font-size="14" lengthAdjust="spacing" textLength="56" x="642" y="243.8232">:System</text><rect fill="#FFFFFF" filter="url(#fzgv95ixw9hjr)" height="108.5313" style="stroke:#A80036;stroke-width:1.0;" width="10" x="46" y="98.2969"/><rect fill="#FFFFFF" filter="url(#fzgv95ixw9hjr)" height="29.1328" style="stroke:#A80036;stroke-width:1.0;" width="10" x="667" y="119.4297"/><rect fill="#FFFFFF" filter="url(#fzgv95ixw9hjr)" height="29.1328" style="stroke:#A80036;stroke-width:1.0;" width="10" x="667" y="177.6953"/><polygon fill="#A80036" points="655,115.4297,665,119.4297,655,123.4297,659,119.4297" style="stroke:#A80036;stroke-width:1.0;"/><line style="stroke:#A80036;stroke-width:1.0;" x1="56" x2="661" y1="119.4297" y2="119.4297"/><text fill="#000000" font-family="sans-serif" font-size="13" font-weight="bold" lengthAdjust="spacing" textLength="9" x="63" y="114.3638">1</text><text fill="#000000" font-family="sans-serif" font-size="13" lengthAdjust="spacing" textLength="127" x="76" y="114.3638">starts the operation</text><polygon fill="#A80036" points="67,144.5625,57,148.5625,67,152.5625,63,148.5625" style="stroke:#A80036;stroke-width:1.0;"/><line style="stroke:#A80036;stroke-width:1.0;stroke-dasharray:2.0,2.0;" x1="61" x2="671" y1="148.5625" y2="148.5625"/><text fill="#000000" font-family="sans-serif" font-size="13" font-weight="bold" lengthAdjust="spacing" textLength="9" x="73" y="143.4966">2</text><text fill="#000000" font-family="sans-serif" font-size="13" lengthAdjust="spacing" textLength="485" x="86" y="143.4966">requests the year and other information relationed with the cargo manifests</text><polygon fill="#A80036" points="655,173.6953,665,177.6953,655,181.6953,659,177.6953" style="stroke:#A80036;stroke-width:1.0;"/><line style="stroke:#A80036;stroke-width:1.0;" x1="56" x2="661" y1="177.6953" y2="177.6953"/><text fill="#000000" font-family="sans-serif" font-size="13" font-weight="bold" lengthAdjust="spacing" textLength="9" x="63" y="172.6294">3</text><text fill="#000000" font-family="sans-serif" font-size="13" lengthAdjust="spacing" textLength="145" x="76" y="172.6294">types the needed data</text><polygon fill="#A80036" points="62,202.8281,52,206.8281,62,210.8281,58,206.8281" style="stroke:#A80036;stroke-width:1.0;"/><line style="stroke:#A80036;stroke-width:1.0;stroke-dasharray:2.0,2.0;" x1="56" x2="671" y1="206.8281" y2="206.8281"/><text fill="#000000" font-family="sans-serif" font-size="13" font-weight="bold" lengthAdjust="spacing" textLength="9" x="68" y="201.7622">4</text><text fill="#000000" font-family="sans-serif" font-size="13" lengthAdjust="spacing" textLength="574" x="81" y="201.7622">shows the number of cargo manifests for that year and the average number of containers</text><!--MD5=[779fd81ade83077cc6a3cc3db4907e2b]
@startuml
autonumber
actor "Ship Captain" as UNR

activate UNR
UNR -> ":System" : starts the operation
activate ":System"
":System" - -> UNR : requests the year and other information relationed with the cargo manifests
deactivate ":System"


UNR -> ":System" : types the needed data
activate ":System"
":System" - -> UNR :shows the number of cargo manifests for that year and the average number of containers
deactivate ":System"

deactivate UNR
@enduml

PlantUML version 1.2021.7(Sun May 23 12:40:07 UTC 2021)
(GPL source distribution)
Java Runtime: OpenJDK Runtime Environment
JVM: OpenJDK 64-Bit Server VM
Default Encoding: UTF-8
Language: en
Country: US
--></g></svg>