<?xml version="1.0" encoding="UTF-8" standalone="no"?><svg xmlns="http://www.w3.org/2000/svg" xmlns:xlink="http://www.w3.org/1999/xlink" contentScriptType="application/ecmascript" contentStyleType="text/css" height="367px" preserveAspectRatio="none" style="width:715px;height:367px;background:#FFFFFF;" version="1.1" viewBox="0 0 715 367" width="715px" zoomAndPan="magnify"><defs><filter height="300%" id="fqkkdj1batm89" width="300%" x="-1" y="-1"><feGaussianBlur result="blurOut" stdDeviation="2.0"/><feColorMatrix in="blurOut" result="blurOut2" type="matrix" values="0 0 0 0 0 0 0 0 0 0 0 0 0 0 0 0 0 0 .4 0"/><feOffset dx="4.0" dy="4.0" in="blurOut2" result="blurOut3"/><feBlend in="SourceGraphic" in2="blurOut3" mode="normal"/></filter></defs><g><rect fill="#FFFFFF" filter="url(#fqkkdj1batm89)" height="166.7969" style="stroke:#A80036;stroke-width:1.0;" width="10" x="55.5" y="98.2969"/><rect fill="#FFFFFF" filter="url(#fqkkdj1batm89)" height="29.1328" style="stroke:#A80036;stroke-width:1.0;" width="10" x="663.5" y="119.4297"/><rect fill="#FFFFFF" filter="url(#fqkkdj1batm89)" height="29.1328" style="stroke:#A80036;stroke-width:1.0;" width="10" x="663.5" y="177.6953"/><rect fill="#FFFFFF" filter="url(#fqkkdj1batm89)" height="29.1328" style="stroke:#A80036;stroke-width:1.0;" width="10" x="663.5" y="235.9609"/><line style="stroke:#A80036;stroke-width:1.0;stroke-dasharray:5.0,5.0;" x1="60" x2="60" y1="88.2969" y2="283.0938"/><line style="stroke:#A80036;stroke-width:1.0;stroke-dasharray:5.0,5.0;" x1="668.5" x2="668.5" y1="88.2969" y2="283.0938"/><text fill="#000000" font-family="sans-serif" font-size="14" lengthAdjust="spacing" textLength="105" x="5" y="84.9951">Traffic Manager</text><ellipse cx="60.5" cy="15" fill="#FEFECE" filter="url(#fqkkdj1batm89)" rx="8" ry="8" style="stroke:#A80036;stroke-width:2.0;"/><path d="M60.5,23 L60.5,50 M47.5,31 L73.5,31 M60.5,50 L47.5,65 M60.5,50 L73.5,65 " fill="none" filter="url(#fqkkdj1batm89)" style="stroke:#A80036;stroke-width:2.0;"/><text fill="#000000" font-family="sans-serif" font-size="14" lengthAdjust="spacing" textLength="105" x="5" y="295.0889">Traffic Manager</text><ellipse cx="60.5" cy="308.3906" fill="#FEFECE" filter="url(#fqkkdj1batm89)" rx="8" ry="8" style="stroke:#A80036;stroke-width:2.0;"/><path d="M60.5,316.3906 L60.5,343.3906 M47.5,324.3906 L73.5,324.3906 M60.5,343.3906 L47.5,358.3906 M60.5,343.3906 L73.5,358.3906 " fill="none" filter="url(#fqkkdj1batm89)" style="stroke:#A80036;stroke-width:2.0;"/><rect fill="#FEFECE" filter="url(#fqkkdj1batm89)" height="30.2969" style="stroke:#A80036;stroke-width:1.5;" width="70" x="631.5" y="53"/><text fill="#000000" font-family="sans-serif" font-size="14" lengthAdjust="spacing" textLength="56" x="638.5" y="72.9951">:System</text><rect fill="#FEFECE" filter="url(#fqkkdj1batm89)" height="30.2969" style="stroke:#A80036;stroke-width:1.5;" width="70" x="631.5" y="282.0938"/><text fill="#000000" font-family="sans-serif" font-size="14" lengthAdjust="spacing" textLength="56" x="638.5" y="302.0889">:System</text><rect fill="#FFFFFF" filter="url(#fqkkdj1batm89)" height="166.7969" style="stroke:#A80036;stroke-width:1.0;" width="10" x="55.5" y="98.2969"/><rect fill="#FFFFFF" filter="url(#fqkkdj1batm89)" height="29.1328" style="stroke:#A80036;stroke-width:1.0;" width="10" x="663.5" y="119.4297"/><rect fill="#FFFFFF" filter="url(#fqkkdj1batm89)" height="29.1328" style="stroke:#A80036;stroke-width:1.0;" width="10" x="663.5" y="177.6953"/><rect fill="#FFFFFF" filter="url(#fqkkdj1batm89)" height="29.1328" style="stroke:#A80036;stroke-width:1.0;" width="10" x="663.5" y="235.9609"/><polygon fill="#A80036" points="651.5,115.4297,661.5,119.4297,651.5,123.4297,655.5,119.4297" style="stroke:#A80036;stroke-width:1.0;"/><line style="stroke:#A80036;stroke-width:1.0;" x1="65.5" x2="657.5" y1="119.4297" y2="119.4297"/><text fill="#000000" font-family="sans-serif" font-size="13" font-weight="bold" lengthAdjust="spacing" textLength="9" x="72.5" y="114.3638">1</text><text fill="#000000" font-family="sans-serif" font-size="13" lengthAdjust="spacing" textLength="127" x="85.5" y="114.3638">starts the operation</text><polygon fill="#A80036" points="76.5,144.5625,66.5,148.5625,76.5,152.5625,72.5,148.5625" style="stroke:#A80036;stroke-width:1.0;"/><line style="stroke:#A80036;stroke-width:1.0;stroke-dasharray:2.0,2.0;" x1="70.5" x2="667.5" y1="148.5625" y2="148.5625"/><text fill="#000000" font-family="sans-serif" font-size="13" font-weight="bold" lengthAdjust="spacing" textLength="9" x="82.5" y="143.4966">2</text><text fill="#000000" font-family="sans-serif" font-size="13" lengthAdjust="spacing" textLength="269" x="95.5" y="143.4966">requests the ships movement information</text><polygon fill="#A80036" points="651.5,173.6953,661.5,177.6953,651.5,181.6953,655.5,177.6953" style="stroke:#A80036;stroke-width:1.0;"/><line style="stroke:#A80036;stroke-width:1.0;" x1="65.5" x2="657.5" y1="177.6953" y2="177.6953"/><text fill="#000000" font-family="sans-serif" font-size="13" font-weight="bold" lengthAdjust="spacing" textLength="9" x="72.5" y="172.6294">3</text><text fill="#000000" font-family="sans-serif" font-size="13" lengthAdjust="spacing" textLength="145" x="85.5" y="172.6294">types the needed data</text><polygon fill="#A80036" points="76.5,202.8281,66.5,206.8281,76.5,210.8281,72.5,206.8281" style="stroke:#A80036;stroke-width:1.0;"/><line style="stroke:#A80036;stroke-width:1.0;stroke-dasharray:2.0,2.0;" x1="70.5" x2="667.5" y1="206.8281" y2="206.8281"/><text fill="#000000" font-family="sans-serif" font-size="13" font-weight="bold" lengthAdjust="spacing" textLength="9" x="82.5" y="201.7622">4</text><text fill="#000000" font-family="sans-serif" font-size="13" lengthAdjust="spacing" textLength="561" x="95.5" y="201.7622">validates and shows the summary created with that information, asking for confirmation</text><polygon fill="#A80036" points="651.5,231.9609,661.5,235.9609,651.5,239.9609,655.5,235.9609" style="stroke:#A80036;stroke-width:1.0;"/><line style="stroke:#A80036;stroke-width:1.0;" x1="65.5" x2="657.5" y1="235.9609" y2="235.9609"/><text fill="#000000" font-family="sans-serif" font-size="13" font-weight="bold" lengthAdjust="spacing" textLength="9" x="72.5" y="230.895">5</text><text fill="#000000" font-family="sans-serif" font-size="13" lengthAdjust="spacing" textLength="55" x="85.5" y="230.895">confirms</text><polygon fill="#A80036" points="71.5,261.0938,61.5,265.0938,71.5,269.0938,67.5,265.0938" style="stroke:#A80036;stroke-width:1.0;"/><line style="stroke:#A80036;stroke-width:1.0;stroke-dasharray:2.0,2.0;" x1="65.5" x2="667.5" y1="265.0938" y2="265.0938"/><text fill="#000000" font-family="sans-serif" font-size="13" font-weight="bold" lengthAdjust="spacing" textLength="9" x="77.5" y="260.0278">6</text><text fill="#000000" font-family="sans-serif" font-size="13" lengthAdjust="spacing" textLength="273" x="90.5" y="260.0278">informs him of the sucess of this operation</text><!--MD5=[1a19a9ebd0c981d728ff878f4b1da275]
@startuml
autonumber
actor "Traffic Manager" as UNR

activate UNR
UNR -> ":System" : starts the operation
activate ":System"
":System" - -> UNR : requests the ships movement information
deactivate ":System"


UNR -> ":System" : types the needed data
activate ":System"
":System" - -> UNR : validates and shows the summary created with that information, asking for confirmation
deactivate ":System"

UNR -> ":System" : confirms
activate ":System"
":System" - -> UNR : informs him of the sucess of this operation
deactivate ":System"

deactivate UNR
@enduml

PlantUML version 1.2021.7(Sun May 23 12:40:07 UTC 2021)
(GPL source distribution)
Java Runtime: OpenJDK Runtime Environment
JVM: OpenJDK 64-Bit Server VM
Default Encoding: UTF-8
Language: en
Country: US
--></g></svg>