<?xml version="1.0" encoding="UTF-8" standalone="no"?><svg xmlns="http://www.w3.org/2000/svg" xmlns:xlink="http://www.w3.org/1999/xlink" contentScriptType="application/ecmascript" contentStyleType="text/css" height="309px" preserveAspectRatio="none" style="width:760px;height:309px;background:#FFFFFF;" version="1.1" viewBox="0 0 760 309" width="760px" zoomAndPan="magnify"><defs><filter height="300%" id="fbfhig6yxpscj" width="300%" x="-1" y="-1"><feGaussianBlur result="blurOut" stdDeviation="2.0"/><feColorMatrix in="blurOut" result="blurOut2" type="matrix" values="0 0 0 0 0 0 0 0 0 0 0 0 0 0 0 0 0 0 .4 0"/><feOffset dx="4.0" dy="4.0" in="blurOut2" result="blurOut3"/><feBlend in="SourceGraphic" in2="blurOut3" mode="normal"/></filter></defs><g><rect fill="#FFFFFF" filter="url(#fbfhig6yxpscj)" height="108.5313" style="stroke:#A80036;stroke-width:1.0;" width="10" x="49" y="98.2969"/><rect fill="#FFFFFF" filter="url(#fbfhig6yxpscj)" height="96.3984" style="stroke:#A80036;stroke-width:1.0;" width="10" x="708" y="119.4297"/><rect fill="#FFFFFF" filter="url(#fbfhig6yxpscj)" height="38.1328" style="stroke:#A80036;stroke-width:1.0;" width="10" x="713" y="177.6953"/><line style="stroke:#A80036;stroke-width:1.0;stroke-dasharray:5.0,5.0;" x1="54" x2="54" y1="88.2969" y2="224.8281"/><line style="stroke:#A80036;stroke-width:1.0;stroke-dasharray:5.0,5.0;" x1="713" x2="713" y1="88.2969" y2="224.8281"/><text fill="#000000" font-family="sans-serif" font-size="14" lengthAdjust="spacing" textLength="92" x="5" y="84.9951">Port Manager</text><ellipse cx="54" cy="15" fill="#FEFECE" filter="url(#fbfhig6yxpscj)" rx="8" ry="8" style="stroke:#A80036;stroke-width:2.0;"/><path d="M54,23 L54,50 M41,31 L67,31 M54,50 L41,65 M54,50 L67,65 " fill="none" filter="url(#fbfhig6yxpscj)" style="stroke:#A80036;stroke-width:2.0;"/><text fill="#000000" font-family="sans-serif" font-size="14" lengthAdjust="spacing" textLength="92" x="5" y="236.8232">Port Manager</text><ellipse cx="54" cy="250.125" fill="#FEFECE" filter="url(#fbfhig6yxpscj)" rx="8" ry="8" style="stroke:#A80036;stroke-width:2.0;"/><path d="M54,258.125 L54,285.125 M41,266.125 L67,266.125 M54,285.125 L41,300.125 M54,285.125 L67,300.125 " fill="none" filter="url(#fbfhig6yxpscj)" style="stroke:#A80036;stroke-width:2.0;"/><rect fill="#FEFECE" filter="url(#fbfhig6yxpscj)" height="30.2969" style="stroke:#A80036;stroke-width:1.5;" width="70" x="676" y="53"/><text fill="#000000" font-family="sans-serif" font-size="14" lengthAdjust="spacing" textLength="56" x="683" y="72.9951">:System</text><rect fill="#FEFECE" filter="url(#fbfhig6yxpscj)" height="30.2969" style="stroke:#A80036;stroke-width:1.5;" width="70" x="676" y="223.8281"/><text fill="#000000" font-family="sans-serif" font-size="14" lengthAdjust="spacing" textLength="56" x="683" y="243.8232">:System</text><rect fill="#FFFFFF" filter="url(#fbfhig6yxpscj)" height="108.5313" style="stroke:#A80036;stroke-width:1.0;" width="10" x="49" y="98.2969"/><rect fill="#FFFFFF" filter="url(#fbfhig6yxpscj)" height="96.3984" style="stroke:#A80036;stroke-width:1.0;" width="10" x="708" y="119.4297"/><rect fill="#FFFFFF" filter="url(#fbfhig6yxpscj)" height="38.1328" style="stroke:#A80036;stroke-width:1.0;" width="10" x="713" y="177.6953"/><polygon fill="#A80036" points="696,115.4297,706,119.4297,696,123.4297,700,119.4297" style="stroke:#A80036;stroke-width:1.0;"/><line style="stroke:#A80036;stroke-width:1.0;" x1="59" x2="702" y1="119.4297" y2="119.4297"/><text fill="#000000" font-family="sans-serif" font-size="13" font-weight="bold" lengthAdjust="spacing" textLength="9" x="66" y="114.3638">1</text><text fill="#000000" font-family="sans-serif" font-size="13" lengthAdjust="spacing" textLength="127" x="79" y="114.3638">starts the operation</text><polygon fill="#A80036" points="70,144.5625,60,148.5625,70,152.5625,66,148.5625" style="stroke:#A80036;stroke-width:1.0;"/><line style="stroke:#A80036;stroke-width:1.0;stroke-dasharray:2.0,2.0;" x1="64" x2="707" y1="148.5625" y2="148.5625"/><text fill="#000000" font-family="sans-serif" font-size="13" font-weight="bold" lengthAdjust="spacing" textLength="9" x="76" y="143.4966">2</text><text fill="#000000" font-family="sans-serif" font-size="13" lengthAdjust="spacing" textLength="612" x="89" y="143.4966">requests all the needed data about ships,  trucks load manifests and corresponding travel plans</text><polygon fill="#A80036" points="701,173.6953,711,177.6953,701,181.6953,705,177.6953" style="stroke:#A80036;stroke-width:1.0;"/><line style="stroke:#A80036;stroke-width:1.0;" x1="59" x2="707" y1="177.6953" y2="177.6953"/><text fill="#000000" font-family="sans-serif" font-size="13" font-weight="bold" lengthAdjust="spacing" textLength="9" x="66" y="172.6294">3</text><text fill="#000000" font-family="sans-serif" font-size="13" lengthAdjust="spacing" textLength="189" x="79" y="172.6294">types the needed information</text><polygon fill="#A80036" points="65,202.8281,55,206.8281,65,210.8281,61,206.8281" style="stroke:#A80036;stroke-width:1.0;"/><line style="stroke:#A80036;stroke-width:1.0;stroke-dasharray:2.0,2.0;" x1="59" x2="712" y1="206.8281" y2="206.8281"/><text fill="#000000" font-family="sans-serif" font-size="13" font-weight="bold" lengthAdjust="spacing" textLength="9" x="71" y="201.7622">4</text><text fill="#000000" font-family="sans-serif" font-size="13" lengthAdjust="spacing" textLength="248" x="84" y="201.7622">returns the loading and unloading map</text><!--MD5=[18ab70ca0ebb2705d56669fd9ccaf87d]
@startuml
autonumber
actor "Port Manager" as UNR

activate UNR
UNR -> ":System" : starts the operation
activate ":System"
":System" - -> UNR : requests all the needed data about ships,  trucks load manifests and corresponding travel plans

UNR -> ":System" : types the needed information
activate ":System"
":System" - -> UNR : returns the loading and unloading map

deactivate UNR
@enduml

PlantUML version 1.2021.16(Wed Dec 08 17:25:22 UTC 2021)
(GPL source distribution)
Java Runtime: OpenJDK Runtime Environment
JVM: OpenJDK 64-Bit Server VM
Default Encoding: UTF-8
Language: en
Country: US
--></g></svg>