<?xml version="1.0" encoding="UTF-8" standalone="no"?><svg xmlns="http://www.w3.org/2000/svg" xmlns:xlink="http://www.w3.org/1999/xlink" contentScriptType="application/ecmascript" contentStyleType="text/css" height="250px" preserveAspectRatio="none" style="width:625px;height:250px;background:#FFFFFF;" version="1.1" viewBox="0 0 625 250" width="625px" zoomAndPan="magnify"><defs><filter height="300%" id="fe5eyelqb779l" width="300%" x="-1" y="-1"><feGaussianBlur result="blurOut" stdDeviation="2.0"/><feColorMatrix in="blurOut" result="blurOut2" type="matrix" values="0 0 0 0 0 0 0 0 0 0 0 0 0 0 0 0 0 0 .4 0"/><feOffset dx="4.0" dy="4.0" in="blurOut2" result="blurOut3"/><feBlend in="SourceGraphic" in2="blurOut3" mode="normal"/></filter></defs><g><rect fill="#FFFFFF" filter="url(#fe5eyelqb779l)" height="50.2656" style="stroke:#A80036;stroke-width:1.0;" width="10" x="49" y="98.2969"/><rect fill="#FFFFFF" filter="url(#fe5eyelqb779l)" height="38.1328" style="stroke:#A80036;stroke-width:1.0;" width="10" x="573" y="119.4297"/><line style="stroke:#A80036;stroke-width:1.0;stroke-dasharray:5.0,5.0;" x1="54" x2="54" y1="88.2969" y2="166.5625"/><line style="stroke:#A80036;stroke-width:1.0;stroke-dasharray:5.0,5.0;" x1="578" x2="578" y1="88.2969" y2="166.5625"/><text fill="#000000" font-family="sans-serif" font-size="14" lengthAdjust="spacing" textLength="92" x="5" y="84.9951">Port Manager</text><ellipse cx="54" cy="15" fill="#FEFECE" filter="url(#fe5eyelqb779l)" rx="8" ry="8" style="stroke:#A80036;stroke-width:2.0;"/><path d="M54,23 L54,50 M41,31 L67,31 M54,50 L41,65 M54,50 L67,65 " fill="none" filter="url(#fe5eyelqb779l)" style="stroke:#A80036;stroke-width:2.0;"/><text fill="#000000" font-family="sans-serif" font-size="14" lengthAdjust="spacing" textLength="92" x="5" y="178.5576">Port Manager</text><ellipse cx="54" cy="191.8594" fill="#FEFECE" filter="url(#fe5eyelqb779l)" rx="8" ry="8" style="stroke:#A80036;stroke-width:2.0;"/><path d="M54,199.8594 L54,226.8594 M41,207.8594 L67,207.8594 M54,226.8594 L41,241.8594 M54,226.8594 L67,241.8594 " fill="none" filter="url(#fe5eyelqb779l)" style="stroke:#A80036;stroke-width:2.0;"/><rect fill="#FEFECE" filter="url(#fe5eyelqb779l)" height="30.2969" style="stroke:#A80036;stroke-width:1.5;" width="70" x="541" y="53"/><text fill="#000000" font-family="sans-serif" font-size="14" lengthAdjust="spacing" textLength="56" x="548" y="72.9951">:System</text><rect fill="#FEFECE" filter="url(#fe5eyelqb779l)" height="30.2969" style="stroke:#A80036;stroke-width:1.5;" width="70" x="541" y="165.5625"/><text fill="#000000" font-family="sans-serif" font-size="14" lengthAdjust="spacing" textLength="56" x="548" y="185.5576">:System</text><rect fill="#FFFFFF" filter="url(#fe5eyelqb779l)" height="50.2656" style="stroke:#A80036;stroke-width:1.0;" width="10" x="49" y="98.2969"/><rect fill="#FFFFFF" filter="url(#fe5eyelqb779l)" height="38.1328" style="stroke:#A80036;stroke-width:1.0;" width="10" x="573" y="119.4297"/><polygon fill="#A80036" points="561,115.4297,571,119.4297,561,123.4297,565,119.4297" style="stroke:#A80036;stroke-width:1.0;"/><line style="stroke:#A80036;stroke-width:1.0;" x1="59" x2="567" y1="119.4297" y2="119.4297"/><text fill="#000000" font-family="sans-serif" font-size="13" font-weight="bold" lengthAdjust="spacing" textLength="9" x="66" y="114.3638">1</text><text fill="#000000" font-family="sans-serif" font-size="13" lengthAdjust="spacing" textLength="127" x="79" y="114.3638">starts the operation</text><polygon fill="#A80036" points="65,144.5625,55,148.5625,65,152.5625,61,148.5625" style="stroke:#A80036;stroke-width:1.0;"/><line style="stroke:#A80036;stroke-width:1.0;stroke-dasharray:2.0,2.0;" x1="59" x2="572" y1="148.5625" y2="148.5625"/><text fill="#000000" font-family="sans-serif" font-size="13" font-weight="bold" lengthAdjust="spacing" textLength="9" x="71" y="143.4966">2</text><text fill="#000000" font-family="sans-serif" font-size="13" lengthAdjust="spacing" textLength="477" x="84" y="143.4966">gives the warning for when the warehouse can't receive the cargo manifest</text><!--MD5=[48116dded4efd4ec6d80170df38cfef6]
@startuml
autonumber
actor "Port Manager" as UNR

activate UNR
UNR -> ":System" : starts the operation
activate ":System"
":System" - -> UNR : gives the warning for when the warehouse can't receive the cargo manifest
deactivate UNR
@enduml

PlantUML version 1.2021.7(Sun May 23 12:40:07 UTC 2021)
(GPL source distribution)
Java Runtime: OpenJDK Runtime Environment
JVM: OpenJDK 64-Bit Server VM
Default Encoding: UTF-8
Language: en
Country: US
--></g></svg>