<?xml version="1.0" encoding="UTF-8" standalone="no"?><svg xmlns="http://www.w3.org/2000/svg" xmlns:xlink="http://www.w3.org/1999/xlink" contentScriptType="application/ecmascript" contentStyleType="text/css" height="309px" preserveAspectRatio="none" style="width:549px;height:309px;background:#FFFFFF;" version="1.1" viewBox="0 0 549 309" width="549px" zoomAndPan="magnify"><defs><filter height="300%" id="fay119hkdvdw3" width="300%" x="-1" y="-1"><feGaussianBlur result="blurOut" stdDeviation="2.0"/><feColorMatrix in="blurOut" result="blurOut2" type="matrix" values="0 0 0 0 0 0 0 0 0 0 0 0 0 0 0 0 0 0 .4 0"/><feOffset dx="4.0" dy="4.0" in="blurOut2" result="blurOut3"/><feBlend in="SourceGraphic" in2="blurOut3" mode="normal"/></filter></defs><g><rect fill="#FFFFFF" filter="url(#fay119hkdvdw3)" height="108.5313" style="stroke:#A80036;stroke-width:1.0;" width="10" x="27" y="98.2969"/><rect fill="#FFFFFF" filter="url(#fay119hkdvdw3)" height="29.1328" style="stroke:#A80036;stroke-width:1.0;" width="10" x="497" y="119.4297"/><rect fill="#FFFFFF" filter="url(#fay119hkdvdw3)" height="38.1328" style="stroke:#A80036;stroke-width:1.0;" width="10" x="497" y="177.6953"/><line style="stroke:#A80036;stroke-width:1.0;stroke-dasharray:5.0,5.0;" x1="32" x2="32" y1="88.2969" y2="224.8281"/><line style="stroke:#A80036;stroke-width:1.0;stroke-dasharray:5.0,5.0;" x1="502" x2="502" y1="88.2969" y2="224.8281"/><text fill="#000000" font-family="sans-serif" font-size="14" lengthAdjust="spacing" textLength="48" x="5" y="84.9951">Cliente</text><ellipse cx="32" cy="15" fill="#FEFECE" filter="url(#fay119hkdvdw3)" rx="8" ry="8" style="stroke:#A80036;stroke-width:2.0;"/><path d="M32,23 L32,50 M19,31 L45,31 M32,50 L19,65 M32,50 L45,65 " fill="none" filter="url(#fay119hkdvdw3)" style="stroke:#A80036;stroke-width:2.0;"/><text fill="#000000" font-family="sans-serif" font-size="14" lengthAdjust="spacing" textLength="48" x="5" y="236.8232">Cliente</text><ellipse cx="32" cy="250.125" fill="#FEFECE" filter="url(#fay119hkdvdw3)" rx="8" ry="8" style="stroke:#A80036;stroke-width:2.0;"/><path d="M32,258.125 L32,285.125 M19,266.125 L45,266.125 M32,285.125 L19,300.125 M32,285.125 L45,300.125 " fill="none" filter="url(#fay119hkdvdw3)" style="stroke:#A80036;stroke-width:2.0;"/><rect fill="#FEFECE" filter="url(#fay119hkdvdw3)" height="30.2969" style="stroke:#A80036;stroke-width:1.5;" width="70" x="465" y="53"/><text fill="#000000" font-family="sans-serif" font-size="14" lengthAdjust="spacing" textLength="56" x="472" y="72.9951">:System</text><rect fill="#FEFECE" filter="url(#fay119hkdvdw3)" height="30.2969" style="stroke:#A80036;stroke-width:1.5;" width="70" x="465" y="223.8281"/><text fill="#000000" font-family="sans-serif" font-size="14" lengthAdjust="spacing" textLength="56" x="472" y="243.8232">:System</text><rect fill="#FFFFFF" filter="url(#fay119hkdvdw3)" height="108.5313" style="stroke:#A80036;stroke-width:1.0;" width="10" x="27" y="98.2969"/><rect fill="#FFFFFF" filter="url(#fay119hkdvdw3)" height="29.1328" style="stroke:#A80036;stroke-width:1.0;" width="10" x="497" y="119.4297"/><rect fill="#FFFFFF" filter="url(#fay119hkdvdw3)" height="38.1328" style="stroke:#A80036;stroke-width:1.0;" width="10" x="497" y="177.6953"/><polygon fill="#A80036" points="485,115.4297,495,119.4297,485,123.4297,489,119.4297" style="stroke:#A80036;stroke-width:1.0;"/><line style="stroke:#A80036;stroke-width:1.0;" x1="37" x2="491" y1="119.4297" y2="119.4297"/><text fill="#000000" font-family="sans-serif" font-size="13" font-weight="bold" lengthAdjust="spacing" textLength="9" x="44" y="114.3638">1</text><text fill="#000000" font-family="sans-serif" font-size="13" lengthAdjust="spacing" textLength="296" x="57" y="114.3638">wants to know the route of a specific container</text><polygon fill="#A80036" points="48,144.5625,38,148.5625,48,152.5625,44,148.5625" style="stroke:#A80036;stroke-width:1.0;"/><line style="stroke:#A80036;stroke-width:1.0;stroke-dasharray:2.0,2.0;" x1="42" x2="501" y1="148.5625" y2="148.5625"/><text fill="#000000" font-family="sans-serif" font-size="13" font-weight="bold" lengthAdjust="spacing" textLength="9" x="54" y="143.4966">2</text><text fill="#000000" font-family="sans-serif" font-size="13" lengthAdjust="spacing" textLength="369" x="67" y="143.4966">requests the registration code and the container identifier</text><polygon fill="#A80036" points="485,173.6953,495,177.6953,485,181.6953,489,177.6953" style="stroke:#A80036;stroke-width:1.0;"/><line style="stroke:#A80036;stroke-width:1.0;" x1="37" x2="491" y1="177.6953" y2="177.6953"/><text fill="#000000" font-family="sans-serif" font-size="13" font-weight="bold" lengthAdjust="spacing" textLength="9" x="44" y="172.6294">3</text><text fill="#000000" font-family="sans-serif" font-size="13" lengthAdjust="spacing" textLength="189" x="57" y="172.6294">types the needed information</text><polygon fill="#A80036" points="43,202.8281,33,206.8281,43,210.8281,39,206.8281" style="stroke:#A80036;stroke-width:1.0;"/><line style="stroke:#A80036;stroke-width:1.0;stroke-dasharray:2.0,2.0;" x1="37" x2="496" y1="206.8281" y2="206.8281"/><text fill="#000000" font-family="sans-serif" font-size="13" font-weight="bold" lengthAdjust="spacing" textLength="9" x="49" y="201.7622">4</text><text fill="#000000" font-family="sans-serif" font-size="13" lengthAdjust="spacing" textLength="423" x="62" y="201.7622">returns the path and informs him about the success the operation</text><!--MD5=[d215b65d85a4d587576f437d13021b99]
@startuml
autonumber
actor "Cliente" as UNR

activate UNR
UNR -> ":System" : wants to know the route of a specific container
activate ":System"
":System" - -> UNR : requests the registration code and the container identifier
deactivate ":System"


UNR -> ":System" : types the needed information
activate ":System"
":System" - -> UNR : returns the path and informs him about the success the operation
deactivate UNR
@enduml

PlantUML version 1.2021.7(Sun May 23 12:40:07 UTC 2021)
(GPL source distribution)
Java Runtime: OpenJDK Runtime Environment
JVM: OpenJDK 64-Bit Server VM
Default Encoding: UTF-8
Language: en
Country: US
--></g></svg>